<svg width="523" height="77" viewBox="0 0 523 77" fill="none" xmlns="http://www.w3.org/2000/svg">
<path d="M3 7.55508C143.627 5.88095 284.302 3.01806 424.939 3.07431C452.792 3.08545 480.704 2.49401 508.486 4.47455C512.47 4.75854 522.786 7.99507 519.221 9.79546C510.596 14.1512 431.826 27.1692 429.233 27.5318C352.799 38.2182 275.579 37.9747 198.66 41.9076C178.383 42.9444 151.024 44.6549 129.955 46.7618C125.036 47.2536 110.496 48.8822 115.393 49.5622C132.411 51.9259 149.74 50.6915 166.921 50.8691C169.802 50.8989 271.611 51.5787 274.833 51.6159C291.955 51.8136 309.353 50.1009 326.175 53.2962C329.452 53.9187 321.304 58.1924 318.147 59.2706C299.432 65.6627 279.234 70.923 259.524 73.0863C257.601 73.2973 264.272 71.5955 265.125 71.406" stroke="#E93636" stroke-width="6" stroke-linecap="round"/>
</svg>
